{"title":"The Duel (2016) 1080p Blu-ray x264 DTS 5.1 Subs -DDR","uid":15611609,"size":4070471328,"categoryP":"video","categoryS":"hd___movies","magnet":"?xt=urn:btih:a363841300575566ebf37e883038c0c94e9b9fe3&amp;dn=The+Duel+%282016%29+1080p+Blu-ray+x264+DTS+5.1+Subs+-DDR&amp;tr=udp%3A%2F%2Ftracker.leechers-paradise.org%3A6969&amp;tr=udp%3A%2F%2Fzer0day.ch%3A1337&amp;tr=udp%3A%2F%2Fopen.demonii.com%3A1337&amp;tr=udp%3A%2F%2Ftracker.coppersurfer.tk%3A6969&amp;tr=udp%3A%2F%2Fexodus.desync.com%3A6969","seeders":78,"leechers":31,"uploader":"SaM","files":3,"time":1471789234,"description":"- HollyWooD Movie-\r\n\r\nThe Duel\r\n\r\n** 2016 **\r\nUHD 2160p / Blu-ray 4K Rip / HEVC x265\r\nEnglish DTS 5.1\r\nEnglish &amp; French subs\r\n \nhttp://extraimago.com/image/wcoG \nhttp://extraimago.com/image/wcor \nhttp://extraimago.com/image/wcop \nhttp://extraimago.com/image/wcoY \nhttp://extraimago.com/image/wcoC \nhttp://extraimago.com/image/wcoB \nhttp://extraimago.com/image/wco4 \nhttp://extraimago.com/image/wcoe \nhttp://extraimago.com/image/wcoZ \nhttp://extraimago.com/image/wcoK \nhttp://extraimago.com/image/wcoJ \nhttp://extraimago.com/image/wco0\r\n\r\nSource : BD50 Blu-ray\r\nFile size : 3.76 GiB\r\nDuration : 1h 50mn\r\nOverall bit rate : 4 881 Kbps\r\n\r\n\r\n[B]Video\r\nFormat : AVC\r\nFormat/Info : Advanced Video Codec\r\nFormat profile :   \r\nFormat settings, CABAC : Yes\r\nFormat settings, ReFrames : 5 frames\r\nCodec ID : V_MPEG4/ISO/AVC\r\nDuration : 1h 50mn\r\nBit rate : 3 360 Kbps\r\nWidth : 1 920 pixels\r\nHeight : 800 pixels\r\nDisplay aspect ratio : 2.40:1\r\nFrame rate mode : Constant\r\nFrame rate : 23.976 (24000/1001) fps\r\ncolor space : YUV\r\nChroma subsampling : 4:2:0\r\nBit depth : 8 bits\r\nScan type : Progressive\r\nBits/(Pixel*Frame) : 0.091\r\nStream size : 2.59 GiB (69%)\r\nWriting library : x264 core 148 r2692 64f4e24\r\nEncoding settings : cabac=1 / ref=5 / deblock=1:-2:-1 / analyse=0x3:0x133 / me=umh / subme=10 / psy=1 / psy_rd=1.00:1.50 / mixed_ref=1 / me_range=24 / chroma_me=1 / trellis=2 / 8x8dct=1 / cqm=0 / deadzone=21,11 / fast_pskip=1 / chroma_qp_offset=-4 / threads=25 / lookahead_threads=4 / sliced_threads=0 / nr=0 / decimate=0 / interlaced=0 / bluray_compat=0 / constrained_intra=0 / bframes=8 / b_pyramid=0 / b_adapt=2 / b_bias=0 / direct=3 / weightb=1 / open_gop=0 / weightp=2 / keyint=230 / keyint_min=23 / scenecut=288 / intra_refresh=0 / rc_lookahead=60 / rc=crf / mbtree=1 / crf=26.0 / qcomp=0.90 / qpmin=3 / qpmax=69 / qpstep=4 / vbv_maxrate=24000 / vbv_bufsize=24000 / crf_max=0.0 / nal_hrd=none / filler=0 / ip_ratio=1.40 / aq=1:1.00\r\nLanguage : English\r\nDefault : Yes\r\nForced : No\r\ncolor range : Limited\r\ncolor primaries : BT.709\r\nTransfer characteristics : BT.709\r\nMatrix coefficients : BT.709\r\n\r\nAudio\r\nAudio #1\r\nFormat : DTS\r\nFormat/Info : Digital Theater Systems\r\nMode : 16\r\nFormat settings, Endianness : Big\r\nCodec ID : A_DTS\r\nDuration : 1h 50mn\r\nBit rate mode : Constant\r\nBit rate : 1 509 Kbps\r\nChannel(s) : 6 channels\r\nChannel positions : Front: L C R, Side: L R, LFE\r\nSampling rate : 48.0 KHz\r\nFrame rate : 93.750 fps (512 spf)\r\nBit depth : 24 bits\r\nCompression mode : Lossy\r\nStream size : 1.16 GiB (31%)\r\nLanguage : English\r\nDefault : Yes\r\nForced : No\r\n\r\nChapters = YES\r\nSample : Included","torrent":{"xt":"urn:btih:a363841300575566ebf37e883038c0c94e9b9fe3","amp;dn":"The+Duel+%282016%29+1080p+Blu-ray+x264+DTS+5.1+Subs+-DDR","amp;tr":["udp%3A%2F%2Ftracker.leechers-paradise.org%3A6969","udp%3A%2F%2Fzer0day.ch%3A1337","udp%3A%2F%2Fopen.demonii.com%3A1337","udp%3A%2F%2Ftracker.coppersurfer.tk%3A6969","udp%3A%2F%2Fexodus.desync.com%3A6969"],"infoHash":"a363841300575566ebf37e883038c0c94e9b9fe3","infoHashBuffer":{"type":"Buffer","data":[163,99,132,19,0,87,85,102,235,243,126,136,48,56,192,201,78,155,159,227]},"announce":[],"urlList":[]}}